<svg xmlns="http://www.w3.org/2000/svg" viewBox="0 0 81 81">
<g clip-path="url(#clip0_15_5)">
<path d="M74.2066 0H6.79345C3.0566 0 0 3.0566 0 6.79345V74.2066C0 77.9426 3.0566 81 6.79345 81H74.2066C77.9426 81 81 77.9434 81 74.2066V6.79345C81 3.05735 77.9434 0 74.2066 0ZM12.4435 8.01296C18.4075 4.14111 26.2728 4.82508 31.2545 9.74339C37 15.4158 42.6813 21.1531 48.3873 26.865C48.4805 26.9582 48.5387 27.0873 48.5596 27.1186C46.1765 29.5777 43.909 31.9161 41.4297 34.4737C37.8555 30.8346 34.2768 27.179 30.6839 23.5384C28.6655 21.4932 26.6345 19.4599 24.5871 17.4446C22.424 15.3151 19.2526 15.1786 17.2626 17.0977C15.2733 19.0154 15.1629 22.0257 17.1686 24.2775C18.3874 25.6455 19.8344 26.8098 21.1754 28.0629C18.594 30.5899 16.2183 32.9163 13.7913 35.2919C11.0039 32.5523 7.93986 29.9343 6.4854 25.9811C4.07771 19.4368 6.56372 11.8296 12.4427 8.01296H12.4435ZM26.821 74.0425C20.1722 77.2512 12.5479 74.8793 8.35382 68.9809C4.1702 63.096 4.53344 55.2568 9.68074 49.8246C15.3613 43.8285 21.3589 38.1322 27.2327 32.2905C29.4808 34.6467 31.7296 37.0037 34.1671 39.5583C32.3509 41.3992 30.2796 43.5234 28.1807 45.6216C24.7064 49.0944 21.1963 52.5329 17.7355 56.0191C15.0436 58.7304 15.06 62.2225 17.7146 64.1924C19.7613 65.7118 22.3771 65.579 24.2589 63.8344C24.96 63.184 25.6395 62.5067 26.2869 61.8026C26.8881 61.1485 27.4326 60.4421 27.9764 59.7902C30.5235 62.4016 32.8469 64.7824 35.5209 67.5228C32.7604 69.6425 30.0909 72.4649 26.8217 74.0425H26.821ZM68.6035 72.8998C63.3145 76.3726 56.2869 76.3413 51.3715 72.5134C48.849 70.5488 46.6464 68.1627 44.3618 65.9042C40.3221 61.9108 36.3287 57.8696 32.3196 53.8441C32.2808 53.8053 32.289 53.7203 32.2801 53.6808C34.634 51.2522 36.868 48.9482 39.4211 46.3137C43.0356 50.0267 46.583 53.692 50.1558 57.3326C52.2144 59.43 54.2969 61.5065 56.4025 63.5577C58.5431 65.6431 61.8459 65.7655 63.7658 63.8791C65.8885 61.7937 65.8617 58.6625 63.6218 56.3905C62.4292 55.1807 61.1186 54.0865 59.8134 52.8961C62.3762 50.29 64.6549 47.9741 67.0402 45.5477C70.4361 48.9594 74.0328 51.9764 75.0733 56.9738C76.3062 62.8953 73.727 69.5351 68.602 72.9005L68.6035 72.8998ZM71.5378 30.8234C65.8244 36.9015 59.7902 42.6783 53.6024 48.8781C51.279 46.3331 49.0765 43.921 46.8023 41.4297C50.0722 38.1479 53.5801 34.6251 57.0909 31.1053C59.2159 28.9751 61.3558 26.8613 63.4697 24.7199C65.7871 22.3718 65.9497 19.2996 63.8926 17.2551C61.7347 15.11 58.6416 15.201 56.2727 17.5438C55.1569 18.6469 54.1402 19.8508 53.0945 20.992C50.6175 18.3993 48.3373 16.0117 45.9706 13.5339C49.6314 9.22351 53.9679 5.27708 60.6144 5.56499C66.9052 5.83798 71.5639 8.83864 74.044 14.6266C76.5329 20.4355 75.9489 26.1303 71.5386 30.8226L71.5378 30.8234Z" fill="white"/>
</g>
<defs>
<clipPath id="clip0_15_5">
<rect width="81" height="81" fill="white"/>
</clipPath>
</defs>
</svg>
